<svg width="48" height="48" viewBox="0 0 48 48" fill="none" xmlns="http://www.w3.org/2000/svg">
<path fill-rule="evenodd" clip-rule="evenodd" d="M3 18.2C3 12.8795 3 10.2193 4.03544 8.18709C4.94624 6.39955 6.39955 4.94624 8.18709 4.03544C10.2193 3 12.8795 3 18.2 3H29.8C35.1205 3 37.7807 3 39.8129 4.03544C41.6004 4.94624 43.0538 6.39955 43.9646 8.18709C45 10.2193 45 12.8795 45 18.2V29.8C45 35.1205 45 37.7807 43.9646 39.8129C43.0538 41.6004 41.6004 43.0538 39.8129 43.9646C37.7807 45 35.1205 45 29.8 45H18.2C12.8795 45 10.2193 45 8.18709 43.9646C6.39955 43.0538 4.94624 41.6004 4.03544 39.8129C3 37.7807 3 35.1205 3 29.8V18.2ZM36.145 23.4111C35.6155 23.132 35.0515 22.9279 34.4686 22.8042C33.7194 22.6279 30.7647 22.0106 30.7636 23.5555C30.7869 24.3231 31.8736 24.7422 32.539 24.9989C32.6213 25.0307 32.6973 25.0599 32.7639 25.0871C34.8877 25.8162 37.291 27.1196 37.2438 29.7396C37.3087 33.0012 34.1486 34.3051 31.4397 34.3054C30.0295 34.32 28.5604 34.1016 27.2698 33.4962C27.1466 33.431 27.0673 33.2916 27.0726 33.1495V30.0286C27.0587 29.9034 27.193 29.7941 27.298 29.8841C28.5625 30.6488 30.0614 31.0201 31.5242 31.04C32.17 31.04 33.4499 30.9774 33.4402 30.0286C33.4402 29.225 32.2477 28.8045 31.5481 28.5578C31.4549 28.525 31.3705 28.4953 31.2988 28.4681C30.4142 28.1523 29.5753 27.7148 28.8053 27.1677C27.7293 26.4002 27.0542 25.1695 27.0726 23.8156C27.0663 20.7445 29.9752 19.3661 32.5949 19.3654C33.8196 19.3553 35.1347 19.446 36.2748 19.9434C36.4387 19.9916 36.4727 20.1643 36.472 20.319V23.2377C36.4824 23.4188 36.2812 23.4805 36.145 23.4111ZM12 15.3051V33.7744C12 33.9359 12.07 34.0077 12.21 34.0077H15.535C15.6759 34.0077 15.8213 33.927 15.7975 33.7564V27.9949C15.8432 27.9949 15.889 27.9949 15.9349 27.9949C18.9372 27.9955 22.254 27.9963 24.18 25.2308C24.88 24.2256 25.23 22.9513 25.23 21.4077C25.23 20.6 25.09 19.8282 24.8275 19.0744C23.7135 16.0036 20.5352 15 17.6 15C16.6955 15 15.7913 15.0269 14.8871 15.0539C13.9831 15.0808 13.0792 15.1077 12.175 15.1077C12.0525 15.1077 12 15.1795 12 15.3051ZM15.815 18.5718V24.6026C17.0196 24.6908 18.2801 24.7004 19.4375 24.3154C20.7152 23.9468 21.415 22.8407 21.415 21.5154C21.4505 20.386 20.8351 19.3024 19.7875 18.8949C18.644 18.4194 17.0493 18.3909 15.815 18.5718Z" fill="#E41A1A"/>
</svg>
