<svg width="48" height="48" viewBox="0 0 48 48" fill="none" xmlns="http://www.w3.org/2000/svg">
<path fill-rule="evenodd" clip-rule="evenodd" d="M4.03544 8.18709C3 10.2193 3 12.8795 3 18.2V29.8C3 35.1205 3 37.7807 4.03544 39.8129C4.94624 41.6004 6.39955 43.0538 8.18709 43.9646C10.2193 45 12.8795 45 18.2 45H29.8C35.1205 45 37.7807 45 39.8129 43.9646C41.6004 43.0538 43.0538 41.6004 43.9646 39.8129C45 37.7807 45 35.1205 45 29.8V18.2C45 12.8795 45 10.2193 43.9646 8.18709C43.0538 6.39955 41.6004 4.94624 39.8129 4.03544C37.7807 3 35.1205 3 29.8 3H18.2C12.8795 3 10.2193 3 8.18709 4.03544C6.39955 4.94624 4.94624 6.39955 4.03544 8.18709ZM31.8654 17.8605C32.1324 17.9701 32.419 18.0206 32.7064 18.0087C33.0046 18.0232 33.3025 17.9742 33.5813 17.8648C33.8601 17.7554 34.1138 17.5879 34.3264 17.373C34.5298 17.1541 34.6883 16.8954 34.7923 16.6125C34.8964 16.3295 34.9439 16.028 34.9321 15.7258C34.9434 15.4327 34.8982 15.1401 34.7991 14.8649C34.7 14.5897 34.549 14.3373 34.3546 14.122C33.9696 13.7078 33.4389 13.5007 32.7627 13.5007C32.4749 13.4931 32.1886 13.5441 31.9202 13.6508C31.6518 13.7574 31.4066 13.9176 31.199 14.122C30.9893 14.3286 30.8244 14.5782 30.7152 14.8546C30.6059 15.1309 30.5548 15.4278 30.565 15.7258C30.553 16.0268 30.599 16.3273 30.7006 16.61C30.8021 16.8927 30.9572 17.152 31.1568 17.373C31.3569 17.5848 31.5984 17.751 31.8654 17.8605ZM30.7622 33.5844V19.7714C30.7622 19.5981 30.8371 19.5114 30.9877 19.5114H34.4532C34.6033 19.5114 34.6785 19.5981 34.6786 19.7714V33.5844C34.6786 33.7772 34.6035 33.8736 34.4532 33.8734H31.0159C30.8468 33.8734 30.7623 33.7771 30.7622 33.5844ZM16.8442 29.3944H23.3526L24.7895 33.6712C24.8201 33.8 24.9428 33.8881 25.0712 33.8735H28.734C28.9031 33.8737 28.9594 33.7773 28.9031 33.5845L22.5073 15.0902C22.4883 14.9939 22.4132 14.9457 22.2819 14.9457H17.8022C17.6908 14.9294 17.5888 15.0319 17.6049 15.148C17.6037 15.5409 17.5659 15.9328 17.4922 16.3183C17.4359 16.5399 17.3795 16.7374 17.3231 16.9107L11.6882 33.5556C11.6317 33.7676 11.6974 33.8735 11.8854 33.8735H15.1819C15.3389 33.8812 15.4832 33.7702 15.52 33.6134L16.8442 29.3944ZM17.8585 25.7533H22.3101C22.0348 24.8127 21.7463 23.8767 21.4577 22.9408C20.9796 21.3901 20.5015 19.8397 20.0843 18.2689C19.6718 19.7109 19.2378 21.1496 18.8078 22.5749C18.4855 23.6434 18.1655 24.7042 17.8585 25.7533Z" fill="#E41A1A"/>
</svg>
