<svg width="48" height="48" viewBox="0 0 48 48" fill="none" xmlns="http://www.w3.org/2000/svg">
<path fill-rule="evenodd" clip-rule="evenodd" d="M29.8 3H18.2C12.8795 3 10.2193 3 8.18709 4.03544C6.39955 4.94624 4.94624 6.39955 4.03544 8.18709C3 10.2193 3 12.8795 3 18.2V29.8C3 35.1205 3 37.7807 4.03544 39.8129C4.94624 41.6004 6.39955 43.0538 8.18709 43.9646C10.2193 45 12.8795 45 18.2 45H29.8C35.1205 45 37.7807 45 39.8129 43.9646C41.6004 43.0538 43.0538 41.6004 43.9646 39.8129C45 37.7807 45 35.1205 45 29.8V18.2C45 12.8795 45 10.2193 43.9646 8.18709C43.0538 6.39955 41.6004 4.94624 39.8129 4.03544C37.7807 3 35.1205 3 29.8 3ZM25.057 33.9301H13.9561C13.7682 33.9301 13.6742 33.8242 13.6743 33.6123V15.2624C13.6535 15.1131 13.7824 14.9809 13.9279 15.0023H17.3653C17.4785 14.9859 17.5782 15.0903 17.5625 15.2046V30.2891H25.6487C25.8178 30.2891 25.8835 30.3758 25.846 30.5491L25.3388 33.6701C25.3344 33.8272 25.2055 33.9285 25.057 33.9301ZM30.9484 19.5479H27.8772C27.7623 19.5175 27.6497 19.6296 27.68 19.7502C27.8337 20.7723 27.8505 21.8262 27.8504 22.8683L27.8504 22.9038C27.8503 23.0378 27.85 23.1717 27.8497 23.3052L27.8497 23.3069C27.8494 23.4537 27.849 23.6001 27.849 23.746V33.6179C27.8262 33.7813 27.969 33.9307 28.1309 33.9068H31.426C31.5763 33.9069 31.6514 33.8202 31.6514 33.6468V24.5551C32.5959 23.5066 34.6198 23.1916 35.9197 23.2836C36.1071 23.2836 36.2014 23.2163 36.2014 23.0813V19.5847C36.2222 19.4355 36.0933 19.3033 35.9478 19.3247C35.0707 19.3072 34.2052 19.5318 33.4418 19.9749C32.73 20.3678 32.0949 20.8919 31.5682 21.5208C31.5674 20.9675 31.5397 20.3494 31.3146 19.8369C31.2698 19.6694 31.1177 19.5494 30.9484 19.5479Z" fill="#E41A1A"/>
</svg>
