<svg width="42" height="42" viewBox="0 0 42 42" fill="none" xmlns="http://www.w3.org/2000/svg">
<path fill-rule="evenodd" clip-rule="evenodd" d="M0 15.2C0 9.8795 0 7.21925 1.03544 5.18709C1.94624 3.39955 3.39955 1.94624 5.18709 1.03544C7.21925 0 9.8795 0 15.2 0H26.8C32.1205 0 34.7807 0 36.8129 1.03544C38.6004 1.94624 40.0538 3.39955 40.9646 5.18709C42 7.21925 42 9.8795 42 15.2V26.8C42 32.1205 42 34.7807 40.9646 36.8129C40.0538 38.6004 38.6004 40.0538 36.8129 40.9646C34.7807 42 32.1205 42 26.8 42H15.2C9.8795 42 7.21925 42 5.18709 40.9646C3.39955 40.0538 1.94624 38.6004 1.03544 36.8129C0 34.7807 0 32.1205 0 26.8V15.2ZM24.6488 15.3179H27.7291C27.8989 15.3194 28.0514 15.4421 28.0964 15.6133C28.3222 16.1373 28.35 16.7692 28.3508 17.3349C28.879 16.6919 29.516 16.1561 30.2299 15.7544C30.9957 15.3014 31.8637 15.0719 32.7434 15.0897C32.8894 15.0679 33.0186 15.203 32.9978 15.3556V18.9302C32.9978 19.0682 32.9032 19.137 32.7152 19.137C31.4114 19.043 29.3816 19.365 28.4342 20.4369V29.7315C28.4342 29.9088 28.3588 29.9974 28.2081 29.9974H24.9032C24.7408 30.0218 24.5976 29.869 24.6205 29.702V19.6097C24.6205 19.4616 24.6208 19.3131 24.6212 19.1641V19.163V19.1619V19.1608C24.6239 17.9507 24.6268 16.7166 24.451 15.5247C24.4206 15.4015 24.5335 15.2868 24.6488 15.3179ZM9 10.8119V29.6935C9 29.8587 9.07021 29.9321 9.21063 29.9321H12.5456C12.6869 29.9321 12.8327 29.8495 12.8088 29.6752V23.785C12.8547 23.785 12.9006 23.785 12.9466 23.785C15.9579 23.7857 19.2846 23.7864 21.2164 20.9592C21.9184 19.9316 22.2695 18.6288 22.2695 17.0508C22.2695 16.225 22.1291 15.436 21.8658 14.6653C20.7484 11.526 17.5607 10.5 14.6167 10.5C13.7095 10.5 12.8026 10.5275 11.8957 10.5551C10.989 10.5826 10.0824 10.6101 9.17552 10.6101C9.05266 10.6101 9 10.6835 9 10.8119ZM12.8264 14.1515V20.3169C14.0346 20.4072 15.2988 20.417 16.4597 20.0234C17.7413 19.6466 18.4431 18.5158 18.4431 17.1608C18.4787 16.0063 17.8615 14.8985 16.8107 14.4818C15.6639 13.9958 14.0644 13.9666 12.8264 14.1515Z" fill="#E41A1A"/>
</svg>
